<svg xmlns="http://www.w3.org/2000/svg">
  <defs>
    <symbol id="icon-album" viewBox="0 0 512 640">
      <g><g><g><g><path d="M166,458H46c-3.866,0-7-3.134-7-7v-40c0-3.866,3.134-7,7-7h120c3.866,0,7,3.134,7,7v40C173,454.866,169.866,458,166,458      z M53,444h106v-26H53V444z"/></g><g><path d="M316,458H196c-3.866,0-7-3.134-7-7v-40c0-3.866,3.134-7,7-7h120c3.866,0,7,3.134,7,7v40      C323,454.866,319.866,458,316,458z M203,444h106v-26H203V444z"/></g><g><path d="M466,458H346c-3.866,0-7-3.134-7-7v-40c0-3.866,3.134-7,7-7h120c3.866,0,7,3.134,7,7v40      C473,454.866,469.866,458,466,458z M353,444h106v-26H353V444z"/></g><g><path d="M166,388H46c-3.866,0-7-3.134-7-7v-40c0-3.866,3.134-7,7-7h120c3.866,0,7,3.134,7,7v40C173,384.866,169.866,388,166,388      z M53,374h106v-26H53V374z"/></g><g><path d="M316,388H196c-3.866,0-7-3.134-7-7v-40c0-3.866,3.134-7,7-7h120c3.866,0,7,3.134,7,7v40      C323,384.866,319.866,388,316,388z M203,374h106v-26H203V374z"/></g><g><path d="M466,388H346c-3.866,0-7-3.134-7-7v-40c0-3.866,3.134-7,7-7h120c3.866,0,7,3.134,7,7v40      C473,384.866,469.866,388,466,388z M353,374h106v-26H353V374z"/></g><g><path d="M316,318H196c-3.866,0-7-3.134-7-7v-40c0-3.866,3.134-7,7-7h120c3.866,0,7,3.134,7,7v40      C323,314.866,319.866,318,316,318z M203,304h106v-26H203V304z"/></g><g><path d="M466,318H346c-3.866,0-7-3.134-7-7v-40c0-3.866,3.134-7,7-7h120c3.866,0,7,3.134,7,7v40      C473,314.866,469.866,318,466,318z M353,304h106v-26H353V304z"/></g><g><path d="M316,248H196c-3.866,0-7-3.134-7-7v-40c0-3.866,3.134-7,7-7h120c3.866,0,7,3.134,7,7v40      C323,244.866,319.866,248,316,248z M203,234h106v-26H203V234z"/></g><g><path d="M466,248H346c-3.866,0-7-3.134-7-7v-40c0-3.866,3.134-7,7-7h120c3.866,0,7,3.134,7,7v40      C473,244.866,469.866,248,466,248z M353,234h106v-26H353V234z"/></g><g><path d="M316,178H196c-3.866,0-7-3.134-7-7v-40c0-3.866,3.134-7,7-7h120c3.866,0,7,3.134,7,7v40      C323,174.866,319.866,178,316,178z M203,164h106v-26H203V164z"/></g><g><path d="M316,108H196c-3.866,0-7-3.134-7-7V61c0-3.866,3.134-7,7-7h120c3.866,0,7,3.134,7,7v40C323,104.866,319.866,108,316,108      z M203,94h106V68H203V94z"/></g></g></g></g>
    </symbol>
    <symbol id="icon-home" viewBox="0 0 100 125">
      <g><path d="M92.579,44.146c-0.003-0.002-0.005-0.005-0.007-0.007L55.859,7.427C54.294,5.862,52.214,5,50.001,5   s-4.294,0.862-5.859,2.427L7.448,44.12c-0.012,0.012-0.025,0.025-0.037,0.038c-3.214,3.232-3.208,8.476,0.016,11.7   c1.473,1.474,3.417,2.326,5.497,2.416c0.085,0.008,0.17,0.012,0.256,0.012h1.463v27.017c0,5.347,4.351,9.697,9.697,9.697h14.363   c1.456,0,2.637-1.181,2.637-2.637V71.182c0-2.44,1.985-4.424,4.425-4.424h8.472c2.44,0,4.424,1.984,4.424,4.424v21.182   c0,1.456,1.18,2.637,2.637,2.637H75.66c5.348,0,9.697-4.35,9.697-9.697V58.286h1.357c2.212,0,4.293-0.862,5.859-2.428   C95.801,52.63,95.803,47.376,92.579,44.146z M88.845,52.13c-0.569,0.569-1.326,0.883-2.13,0.883h-3.994   c-1.456,0-2.637,1.18-2.637,2.637v29.653c0,2.439-1.984,4.423-4.424,4.423H63.934V71.182c0-5.347-4.35-9.697-9.697-9.697h-8.472   c-5.348,0-9.698,4.351-9.698,9.697v18.545H24.34c-2.439,0-4.424-1.984-4.424-4.423V55.65c0-1.456-1.18-2.637-2.637-2.637h-3.925   c-0.041-0.003-0.082-0.005-0.124-0.005c-0.786-0.014-1.522-0.325-2.074-0.878c-1.174-1.174-1.174-3.085,0-4.26   c0.001,0,0.001-0.001,0.001-0.001l0.002-0.002l36.712-36.71c0.569-0.569,1.325-0.882,2.129-0.882c0.804,0,1.56,0.313,2.129,0.882   l36.703,36.703c0.005,0.005,0.012,0.011,0.017,0.016C90.018,49.051,90.016,50.958,88.845,52.13z"/></g>
    </symbol>
    <symbol id="icon-merch" viewBox="0 0 64 80">
      <title>merchant, merch, shop, seller, store</title><g data-name="16"><path d="M57,28a1,1,0,0,0-1,1V54a3,3,0,0,1-3,3H11a3,3,0,0,1-3-3V29a1,1,0,0,0-2,0V54a5,5,0,0,0,5,5H53a5,5,0,0,0,5-5V29A1,1,0,0,0,57,28Z"/><path d="M56.94,4.67A1,1,0,0,0,56,4H7a1,1,0,0,0-1,.75C5.53,6.7,3,16.51,3,18a8,8,0,0,0,15,3.87,8,8,0,0,0,14,0,8,8,0,0,0,14,0A8,8,0,0,0,61,18C61,16.42,57.9,7.4,56.94,4.67ZM55.29,6c.23.66.46,1.33.68,2H7.27l.5-2ZM53,24a6,6,0,0,1-6-6,1,1,0,0,0-2,0,6,6,0,0,1-12,0,1,1,0,0,0-2,0,6,6,0,0,1-12,0,1,1,0,0,0-2,0A6,6,0,0,1,5,18c0-.63.84-4.25,1.77-8H56.64A66.09,66.09,0,0,1,59,18,6,6,0,0,1,53,24Z"/><path d="M14,28a1,1,0,0,0-1,1V42a5,5,0,0,0,5,5H46a5,5,0,0,0,5-5V29a1,1,0,0,0-2,0V42a3,3,0,0,1-3,3H18a3,3,0,0,1-3-3V29A1,1,0,0,0,14,28Z"/></g>
    </symbol>
    <symbol id="icon-tour" viewBox="0 0 100 125">
      <title>_</title><path d="M44,32.07a3,3,0,0,0-3,3V64.94a3,3,0,0,0,6,0V35.05A3,3,0,0,0,44,32.07Z"/><path d="M20.11,23.1a3,3,0,0,0-3,3V73.91a3,3,0,0,0,6,0V26.09A3,3,0,0,0,20.11,23.1Z"/><path d="M67.93,5.17a3,3,0,0,0-3,3V91.84a3,3,0,1,0,6,0V8.16A3,3,0,0,0,67.93,5.17Z"/><path d="M91.84,32.07a3,3,0,0,0-3,3V64.94a3,3,0,1,0,6,0V35.05A3,3,0,0,0,91.84,32.07Z"/><path d="M32.07,14.13a3,3,0,0,0-3,3V82.88a3,3,0,1,0,6,0V17.12A3,3,0,0,0,32.07,14.13Z"/><path d="M8.16,38a3,3,0,0,0-3,3V59a3,3,0,1,0,6,0V41A3,3,0,0,0,8.16,38Z"/><path d="M56,23.1a3,3,0,0,0-3,3V73.91a3,3,0,0,0,6,0V26.09A3,3,0,0,0,56,23.1Z"/><path d="M79.89,23.1a3,3,0,0,0-3,3V73.91a3,3,0,0,0,6,0V26.09A3,3,0,0,0,79.89,23.1Z"/>
    </symbol>
    <symbol id="icon-profile" viewBox="0 0 100 125">
      <path d="M39.71,68.31c2.61-.14,5.57-.31,8.61-.31s6,.17,8.61.31c5.77.32,10.75.59,12.53-1.1a3.34,3.34,0,0,0,.86-2.68c0-5-4.64-9.4-11.34-11.74a16.07,16.07,0,0,1-21.31,0C31,55.13,26.32,59.57,26.32,64.53a3.33,3.33,0,0,0,.87,2.68C29,68.9,34,68.63,39.71,68.31Z"/><ellipse cx="48.32" cy="40.73" rx="12.13" ry="12.1"/><path d="M48.32,90a40,40,0,1,0-40-40A40,40,0,0,0,48.32,90Zm0-76a36,36,0,1,1-36,36A36,36,0,0,1,48.32,14Z"/>
    </symbol>
  </defs>
</svg>