<svg xmlns="http://www.w3.org/2000/svg">
  <defs>
    <symbol id="icon-album" viewBox="0 0 512 640">
        <g><g><g><g><path d="M166,458H46c-3.866,0-7-3.134-7-7v-40c0-3.866,3.134-7,7-7h120c3.866,0,7,3.134,7,7v40C173,454.866,169.866,458,166,458      z M53,444h106v-26H53V444z"/></g><g><path d="M316,458H196c-3.866,0-7-3.134-7-7v-40c0-3.866,3.134-7,7-7h120c3.866,0,7,3.134,7,7v40      C323,454.866,319.866,458,316,458z M203,444h106v-26H203V444z"/></g><g><path d="M466,458H346c-3.866,0-7-3.134-7-7v-40c0-3.866,3.134-7,7-7h120c3.866,0,7,3.134,7,7v40      C473,454.866,469.866,458,466,458z M353,444h106v-26H353V444z"/></g><g><path d="M166,388H46c-3.866,0-7-3.134-7-7v-40c0-3.866,3.134-7,7-7h120c3.866,0,7,3.134,7,7v40C173,384.866,169.866,388,166,388      z M53,374h106v-26H53V374z"/></g><g><path d="M316,388H196c-3.866,0-7-3.134-7-7v-40c0-3.866,3.134-7,7-7h120c3.866,0,7,3.134,7,7v40      C323,384.866,319.866,388,316,388z M203,374h106v-26H203V374z"/></g><g><path d="M466,388H346c-3.866,0-7-3.134-7-7v-40c0-3.866,3.134-7,7-7h120c3.866,0,7,3.134,7,7v40      C473,384.866,469.866,388,466,388z M353,374h106v-26H353V374z"/></g><g><path d="M316,318H196c-3.866,0-7-3.134-7-7v-40c0-3.866,3.134-7,7-7h120c3.866,0,7,3.134,7,7v40      C323,314.866,319.866,318,316,318z M203,304h106v-26H203V304z"/></g><g><path d="M466,318H346c-3.866,0-7-3.134-7-7v-40c0-3.866,3.134-7,7-7h120c3.866,0,7,3.134,7,7v40      C473,314.866,469.866,318,466,318z M353,304h106v-26H353V304z"/></g><g><path d="M316,248H196c-3.866,0-7-3.134-7-7v-40c0-3.866,3.134-7,7-7h120c3.866,0,7,3.134,7,7v40      C323,244.866,319.866,248,316,248z M203,234h106v-26H203V234z"/></g><g><path d="M466,248H346c-3.866,0-7-3.134-7-7v-40c0-3.866,3.134-7,7-7h120c3.866,0,7,3.134,7,7v40      C473,244.866,469.866,248,466,248z M353,234h106v-26H353V234z"/></g><g><path d="M316,178H196c-3.866,0-7-3.134-7-7v-40c0-3.866,3.134-7,7-7h120c3.866,0,7,3.134,7,7v40      C323,174.866,319.866,178,316,178z M203,164h106v-26H203V164z"/></g><g><path d="M316,108H196c-3.866,0-7-3.134-7-7V61c0-3.866,3.134-7,7-7h120c3.866,0,7,3.134,7,7v40C323,104.866,319.866,108,316,108      z M203,94h106V68H203V94z"/></g></g></g></g>
    </symbol>
  </defs>
</svg>