<svg xmlns="http://www.w3.org/2000/svg">
  <defs>
    <symbol id="icon-home" viewBox="0 0 100 125">
        <g><path d="M92.579,44.146c-0.003-0.002-0.005-0.005-0.007-0.007L55.859,7.427C54.294,5.862,52.214,5,50.001,5   s-4.294,0.862-5.859,2.427L7.448,44.12c-0.012,0.012-0.025,0.025-0.037,0.038c-3.214,3.232-3.208,8.476,0.016,11.7   c1.473,1.474,3.417,2.326,5.497,2.416c0.085,0.008,0.17,0.012,0.256,0.012h1.463v27.017c0,5.347,4.351,9.697,9.697,9.697h14.363   c1.456,0,2.637-1.181,2.637-2.637V71.182c0-2.44,1.985-4.424,4.425-4.424h8.472c2.44,0,4.424,1.984,4.424,4.424v21.182   c0,1.456,1.18,2.637,2.637,2.637H75.66c5.348,0,9.697-4.35,9.697-9.697V58.286h1.357c2.212,0,4.293-0.862,5.859-2.428   C95.801,52.63,95.803,47.376,92.579,44.146z M88.845,52.13c-0.569,0.569-1.326,0.883-2.13,0.883h-3.994   c-1.456,0-2.637,1.18-2.637,2.637v29.653c0,2.439-1.984,4.423-4.424,4.423H63.934V71.182c0-5.347-4.35-9.697-9.697-9.697h-8.472   c-5.348,0-9.698,4.351-9.698,9.697v18.545H24.34c-2.439,0-4.424-1.984-4.424-4.423V55.65c0-1.456-1.18-2.637-2.637-2.637h-3.925   c-0.041-0.003-0.082-0.005-0.124-0.005c-0.786-0.014-1.522-0.325-2.074-0.878c-1.174-1.174-1.174-3.085,0-4.26   c0.001,0,0.001-0.001,0.001-0.001l0.002-0.002l36.712-36.71c0.569-0.569,1.325-0.882,2.129-0.882c0.804,0,1.56,0.313,2.129,0.882   l36.703,36.703c0.005,0.005,0.012,0.011,0.017,0.016C90.018,49.051,90.016,50.958,88.845,52.13z"/></g>
    </symbol>
  </defs>
</svg>