<svg xmlns="http://www.w3.org/2000/svg">
  <defs>
    <symbol id="icon-merch" viewBox="0 0 64 80">
    <title>merchant, merch, shop, seller, store</title><g data-name="16"><path d="M57,28a1,1,0,0,0-1,1V54a3,3,0,0,1-3,3H11a3,3,0,0,1-3-3V29a1,1,0,0,0-2,0V54a5,5,0,0,0,5,5H53a5,5,0,0,0,5-5V29A1,1,0,0,0,57,28Z"/><path d="M56.94,4.67A1,1,0,0,0,56,4H7a1,1,0,0,0-1,.75C5.53,6.7,3,16.51,3,18a8,8,0,0,0,15,3.87,8,8,0,0,0,14,0,8,8,0,0,0,14,0A8,8,0,0,0,61,18C61,16.42,57.9,7.4,56.94,4.67ZM55.29,6c.23.66.46,1.33.68,2H7.27l.5-2ZM53,24a6,6,0,0,1-6-6,1,1,0,0,0-2,0,6,6,0,0,1-12,0,1,1,0,0,0-2,0,6,6,0,0,1-12,0,1,1,0,0,0-2,0A6,6,0,0,1,5,18c0-.63.84-4.25,1.77-8H56.64A66.09,66.09,0,0,1,59,18,6,6,0,0,1,53,24Z"/><path d="M14,28a1,1,0,0,0-1,1V42a5,5,0,0,0,5,5H46a5,5,0,0,0,5-5V29a1,1,0,0,0-2,0V42a3,3,0,0,1-3,3H18a3,3,0,0,1-3-3V29A1,1,0,0,0,14,28Z"/></g>
    </symbol>
  </defs>
</svg>