<svg xmlns="http://www.w3.org/2000/svg">
  <defs>
  <symbol id="icon-tour" viewBox="0 0 100 125">
  <title>_</title><path d="M44,32.07a3,3,0,0,0-3,3V64.94a3,3,0,0,0,6,0V35.05A3,3,0,0,0,44,32.07Z"/><path d="M20.11,23.1a3,3,0,0,0-3,3V73.91a3,3,0,0,0,6,0V26.09A3,3,0,0,0,20.11,23.1Z"/><path d="M67.93,5.17a3,3,0,0,0-3,3V91.84a3,3,0,1,0,6,0V8.16A3,3,0,0,0,67.93,5.17Z"/><path d="M91.84,32.07a3,3,0,0,0-3,3V64.94a3,3,0,1,0,6,0V35.05A3,3,0,0,0,91.84,32.07Z"/><path d="M32.07,14.13a3,3,0,0,0-3,3V82.88a3,3,0,1,0,6,0V17.12A3,3,0,0,0,32.07,14.13Z"/><path d="M8.16,38a3,3,0,0,0-3,3V59a3,3,0,1,0,6,0V41A3,3,0,0,0,8.16,38Z"/><path d="M56,23.1a3,3,0,0,0-3,3V73.91a3,3,0,0,0,6,0V26.09A3,3,0,0,0,56,23.1Z"/><path d="M79.89,23.1a3,3,0,0,0-3,3V73.91a3,3,0,0,0,6,0V26.09A3,3,0,0,0,79.89,23.1Z"/>
  </symbol>
  </defs>
</svg>